%TF.GenerationSoftware,KiCad,Pcbnew,7.0.9*%
%TF.CreationDate,2024-01-03T14:20:43+09:00*%
%TF.ProjectId,SlimeVR_Tracker,536c696d-6556-4525-9f54-7261636b6572,rev?*%
%TF.SameCoordinates,Original*%
%TF.FileFunction,Soldermask,Top*%
%TF.FilePolarity,Negative*%
%FSLAX46Y46*%
G04 Gerber Fmt 4.6, Leading zero omitted, Abs format (unit mm)*
G04 Created by KiCad (PCBNEW 7.0.9) date 2024-01-03 14:20:43*
%MOMM*%
%LPD*%
G01*
G04 APERTURE LIST*
G04 Aperture macros list*
%AMRoundRect*
0 Rectangle with rounded corners*
0 $1 Rounding radius*
0 $2 $3 $4 $5 $6 $7 $8 $9 X,Y pos of 4 corners*
0 Add a 4 corners polygon primitive as box body*
4,1,4,$2,$3,$4,$5,$6,$7,$8,$9,$2,$3,0*
0 Add four circle primitives for the rounded corners*
1,1,$1+$1,$2,$3*
1,1,$1+$1,$4,$5*
1,1,$1+$1,$6,$7*
1,1,$1+$1,$8,$9*
0 Add four rect primitives between the rounded corners*
20,1,$1+$1,$2,$3,$4,$5,0*
20,1,$1+$1,$4,$5,$6,$7,0*
20,1,$1+$1,$6,$7,$8,$9,0*
20,1,$1+$1,$8,$9,$2,$3,0*%
G04 Aperture macros list end*
%ADD10R,2.500000X2.500000*%
%ADD11RoundRect,0.250000X-0.600000X-0.725000X0.600000X-0.725000X0.600000X0.725000X-0.600000X0.725000X0*%
%ADD12O,1.700000X1.950000*%
%ADD13R,2.000000X2.000000*%
%ADD14O,2.000000X1.600000*%
%ADD15R,1.700000X1.700000*%
%ADD16O,1.700000X1.700000*%
%ADD17C,1.600000*%
%ADD18O,1.600000X1.600000*%
%ADD19R,2.200000X2.200000*%
%ADD20O,2.200000X2.200000*%
%ADD21C,1.750000*%
G04 APERTURE END LIST*
D10*
%TO.C,TP4056-Module1*%
X111400000Y-29570000D03*
X111400000Y-37970000D03*
X88300000Y-26570000D03*
X88300000Y-40970000D03*
X111400000Y-26570000D03*
X111400000Y-40970000D03*
%TD*%
D11*
%TO.C,J2*%
X121350000Y-70450000D03*
D12*
X123850000Y-70450000D03*
X126350000Y-70450000D03*
X128850000Y-70450000D03*
%TD*%
D13*
%TO.C,U2*%
X88900000Y-53340000D03*
D14*
X88900000Y-55880000D03*
X88900000Y-58420000D03*
X88900000Y-60960000D03*
X88900000Y-63500000D03*
X88900000Y-66040000D03*
X88900000Y-68580000D03*
X88900000Y-71120000D03*
X111760000Y-71120000D03*
X111760000Y-68580000D03*
X111760000Y-66040000D03*
X111760000Y-63500000D03*
X111760000Y-60960000D03*
X111760000Y-58420000D03*
X111760000Y-55880000D03*
X111760000Y-53340000D03*
%TD*%
D15*
%TO.C,SW1*%
X132080000Y-38100000D03*
D16*
X132080000Y-40640000D03*
X132080000Y-43180000D03*
%TD*%
D15*
%TO.C,BT1*%
X119380000Y-38100000D03*
D16*
X119380000Y-40640000D03*
%TD*%
D17*
%TO.C,R1*%
X119380000Y-48260000D03*
D18*
X129540000Y-48260000D03*
%TD*%
D19*
%TO.C,D2*%
X119380000Y-27940000D03*
D20*
X129540000Y-27940000D03*
%TD*%
D19*
%TO.C,D1*%
X119380000Y-33020000D03*
D20*
X129540000Y-33020000D03*
%TD*%
D21*
%TO.C,BMI160-Module1*%
X119380000Y-63840000D03*
X129540000Y-63840000D03*
X121920000Y-63840000D03*
X124460000Y-53340000D03*
X121920000Y-53340000D03*
X119380000Y-53340000D03*
X132080000Y-63840000D03*
X124460000Y-63840000D03*
X127000000Y-53340000D03*
X127000000Y-63840000D03*
X129540000Y-53340000D03*
X116840000Y-63840000D03*
%TD*%
M02*
