%TF.GenerationSoftware,KiCad,Pcbnew,7.0.9*%
%TF.CreationDate,2024-01-03T14:20:43+09:00*%
%TF.ProjectId,SlimeVR_Tracker,536c696d-6556-4525-9f54-7261636b6572,rev?*%
%TF.SameCoordinates,Original*%
%TF.FileFunction,Copper,L1,Top*%
%TF.FilePolarity,Positive*%
%FSLAX46Y46*%
G04 Gerber Fmt 4.6, Leading zero omitted, Abs format (unit mm)*
G04 Created by KiCad (PCBNEW 7.0.9) date 2024-01-03 14:20:43*
%MOMM*%
%LPD*%
G01*
G04 APERTURE LIST*
G04 Aperture macros list*
%AMRoundRect*
0 Rectangle with rounded corners*
0 $1 Rounding radius*
0 $2 $3 $4 $5 $6 $7 $8 $9 X,Y pos of 4 corners*
0 Add a 4 corners polygon primitive as box body*
4,1,4,$2,$3,$4,$5,$6,$7,$8,$9,$2,$3,0*
0 Add four circle primitives for the rounded corners*
1,1,$1+$1,$2,$3*
1,1,$1+$1,$4,$5*
1,1,$1+$1,$6,$7*
1,1,$1+$1,$8,$9*
0 Add four rect primitives between the rounded corners*
20,1,$1+$1,$2,$3,$4,$5,0*
20,1,$1+$1,$4,$5,$6,$7,0*
20,1,$1+$1,$6,$7,$8,$9,0*
20,1,$1+$1,$8,$9,$2,$3,0*%
G04 Aperture macros list end*
%TA.AperFunction,ComponentPad*%
%ADD10R,2.500000X2.500000*%
%TD*%
%TA.AperFunction,ComponentPad*%
%ADD11RoundRect,0.250000X-0.600000X-0.725000X0.600000X-0.725000X0.600000X0.725000X-0.600000X0.725000X0*%
%TD*%
%TA.AperFunction,ComponentPad*%
%ADD12O,1.700000X1.950000*%
%TD*%
%TA.AperFunction,ComponentPad*%
%ADD13R,2.000000X2.000000*%
%TD*%
%TA.AperFunction,ComponentPad*%
%ADD14O,2.000000X1.600000*%
%TD*%
%TA.AperFunction,ComponentPad*%
%ADD15R,1.700000X1.700000*%
%TD*%
%TA.AperFunction,ComponentPad*%
%ADD16O,1.700000X1.700000*%
%TD*%
%TA.AperFunction,ComponentPad*%
%ADD17C,1.600000*%
%TD*%
%TA.AperFunction,ComponentPad*%
%ADD18O,1.600000X1.600000*%
%TD*%
%TA.AperFunction,ComponentPad*%
%ADD19R,2.200000X2.200000*%
%TD*%
%TA.AperFunction,ComponentPad*%
%ADD20O,2.200000X2.200000*%
%TD*%
%TA.AperFunction,ComponentPad*%
%ADD21C,1.750000*%
%TD*%
%TA.AperFunction,Conductor*%
%ADD22C,1.000000*%
%TD*%
%TA.AperFunction,Conductor*%
%ADD23C,0.250000*%
%TD*%
%TA.AperFunction,Conductor*%
%ADD24C,0.200000*%
%TD*%
G04 APERTURE END LIST*
D10*
%TO.P,TP4056-Module1,B+,B+*%
%TO.N,B+*%
X111400000Y-29570000D03*
%TO.P,TP4056-Module1,B-,B-*%
%TO.N,B-*%
X111400000Y-37970000D03*
%TO.P,TP4056-Module1,IN+,IN+*%
%TO.N,Net-(D1-A)*%
X88300000Y-26570000D03*
%TO.P,TP4056-Module1,IN-,IN-*%
%TO.N,unconnected-(TP4056-Module1-PadIN-)*%
X88300000Y-40970000D03*
%TO.P,TP4056-Module1,OUT+,OUT+*%
%TO.N,Net-(D2-A)*%
X111400000Y-26570000D03*
%TO.P,TP4056-Module1,OUT-,OUT-*%
%TO.N,Net-(SW1-B)*%
X111400000Y-40970000D03*
%TD*%
D11*
%TO.P,J2,1,Pin_1*%
%TO.N,+3V3*%
X121350000Y-70450000D03*
D12*
%TO.P,J2,2,Pin_2*%
%TO.N,GND*%
X123850000Y-70450000D03*
%TO.P,J2,3,Pin_3*%
%TO.N,SCL*%
X126350000Y-70450000D03*
%TO.P,J2,4,Pin_4*%
%TO.N,SDA*%
X128850000Y-70450000D03*
%TD*%
D13*
%TO.P,U2,1,~{RST}*%
%TO.N,unconnected-(U2-~{RST}-Pad1)*%
X88900000Y-53340000D03*
D14*
%TO.P,U2,2,A0*%
%TO.N,Net-(U2-A0)*%
X88900000Y-55880000D03*
%TO.P,U2,3,D0*%
%TO.N,unconnected-(U2-D0-Pad3)*%
X88900000Y-58420000D03*
%TO.P,U2,4,SCK/D5*%
%TO.N,unconnected-(U2-SCK{slash}D5-Pad4)*%
X88900000Y-60960000D03*
%TO.P,U2,5,MISO/D6*%
%TO.N,unconnected-(U2-MISO{slash}D6-Pad5)*%
X88900000Y-63500000D03*
%TO.P,U2,6,MOSI/D7*%
%TO.N,unconnected-(U2-MOSI{slash}D7-Pad6)*%
X88900000Y-66040000D03*
%TO.P,U2,7,CS/D8*%
%TO.N,unconnected-(U2-CS{slash}D8-Pad7)*%
X88900000Y-68580000D03*
%TO.P,U2,8,3V3*%
%TO.N,+3V3*%
X88900000Y-71120000D03*
%TO.P,U2,9,5V*%
%TO.N,+5V*%
X111760000Y-71120000D03*
%TO.P,U2,10,GND*%
%TO.N,GND*%
X111760000Y-68580000D03*
%TO.P,U2,11,D4*%
%TO.N,unconnected-(U2-D4-Pad11)*%
X111760000Y-66040000D03*
%TO.P,U2,12,D3*%
%TO.N,unconnected-(U2-D3-Pad12)*%
X111760000Y-63500000D03*
%TO.P,U2,13,SDA/D2*%
%TO.N,SDA*%
X111760000Y-60960000D03*
%TO.P,U2,14,SCL/D1*%
%TO.N,SCL*%
X111760000Y-58420000D03*
%TO.P,U2,15,RX*%
%TO.N,unconnected-(U2-RX-Pad15)*%
X111760000Y-55880000D03*
%TO.P,U2,16,TX*%
%TO.N,unconnected-(U2-TX-Pad16)*%
X111760000Y-53340000D03*
%TD*%
D15*
%TO.P,SW1,1,A*%
%TO.N,GND*%
X132080000Y-38100000D03*
D16*
%TO.P,SW1,2,B*%
%TO.N,Net-(SW1-B)*%
X132080000Y-40640000D03*
%TO.P,SW1,3,C*%
%TO.N,unconnected-(SW1-C-Pad3)*%
X132080000Y-43180000D03*
%TD*%
D15*
%TO.P,BT1,1,+*%
%TO.N,B+*%
X119380000Y-38100000D03*
D16*
%TO.P,BT1,2,-*%
%TO.N,B-*%
X119380000Y-40640000D03*
%TD*%
D17*
%TO.P,R1,1*%
%TO.N,Net-(U2-A0)*%
X119380000Y-48260000D03*
D18*
%TO.P,R1,2*%
%TO.N,B+*%
X129540000Y-48260000D03*
%TD*%
D19*
%TO.P,D2,1,K*%
%TO.N,+5V*%
X119380000Y-27940000D03*
D20*
%TO.P,D2,2,A*%
%TO.N,Net-(D2-A)*%
X129540000Y-27940000D03*
%TD*%
D19*
%TO.P,D1,1,K*%
%TO.N,+5V*%
X119380000Y-33020000D03*
D20*
%TO.P,D1,2,A*%
%TO.N,Net-(D1-A)*%
X129540000Y-33020000D03*
%TD*%
D21*
%TO.P,BMI160-Module1,3V3,3V3*%
%TO.N,+3V3*%
X119380000Y-63840000D03*
%TO.P,BMI160-Module1,CS,CS*%
%TO.N,unconnected-(BMI160-Module1-PadCS)*%
X129540000Y-63840000D03*
%TO.P,BMI160-Module1,GND,GND*%
%TO.N,GND*%
X121920000Y-63840000D03*
%TO.P,BMI160-Module1,INT1,INT1*%
%TO.N,unconnected-(BMI160-Module1-PadINT1)*%
X124460000Y-53340000D03*
%TO.P,BMI160-Module1,INT2,INT2*%
%TO.N,unconnected-(BMI160-Module1-PadINT2)*%
X121920000Y-53340000D03*
%TO.P,BMI160-Module1,OCS,OCS*%
%TO.N,unconnected-(BMI160-Module1-PadOCS)*%
X119380000Y-53340000D03*
%TO.P,BMI160-Module1,SAO,SAO*%
%TO.N,GND*%
X132080000Y-63840000D03*
%TO.P,BMI160-Module1,SCL,SCL*%
%TO.N,SCL*%
X124460000Y-63840000D03*
%TO.P,BMI160-Module1,SCX,SCX*%
%TO.N,unconnected-(BMI160-Module1-PadSCX)*%
X127000000Y-53340000D03*
%TO.P,BMI160-Module1,SDA,SDA*%
%TO.N,SDA*%
X127000000Y-63840000D03*
%TO.P,BMI160-Module1,SDX,SDX*%
%TO.N,unconnected-(BMI160-Module1-PadSDX)*%
X129540000Y-53340000D03*
%TO.P,BMI160-Module1,VIN,VIN*%
%TO.N,unconnected-(BMI160-Module1-PadVIN)*%
X116840000Y-63840000D03*
%TD*%
D22*
%TO.N,B-*%
X116840000Y-40640000D02*
X119380000Y-40640000D01*
X114170000Y-37970000D02*
X116840000Y-40640000D01*
X111400000Y-37970000D02*
X114170000Y-37970000D01*
D23*
%TO.N,Net-(SW1-B)*%
X111400000Y-40970000D02*
X114806778Y-40970000D01*
%TO.N,Net-(D1-A)*%
X89875000Y-24995000D02*
X88300000Y-26570000D01*
X129135000Y-24995000D02*
X89875000Y-24995000D01*
%TO.N,Net-(D2-A)*%
X111455000Y-26515000D02*
X128115000Y-26515000D01*
X111400000Y-26570000D02*
X111455000Y-26515000D01*
D22*
%TO.N,B+*%
X119380000Y-37550000D02*
X111400000Y-29570000D01*
D24*
X119380000Y-38100000D02*
X119380000Y-37550000D01*
D23*
%TO.N,+5V*%
X132250000Y-72250000D02*
X134155000Y-70345000D01*
X112890000Y-72250000D02*
X132250000Y-72250000D01*
X111760000Y-71120000D02*
X112890000Y-72250000D01*
%TO.N,GND*%
X122550000Y-71750000D02*
X123850000Y-70450000D01*
X114930000Y-71750000D02*
X122550000Y-71750000D01*
X111760000Y-68580000D02*
X114930000Y-71750000D01*
X129286701Y-71800000D02*
X125200000Y-71800000D01*
X132080000Y-69006701D02*
X129286701Y-71800000D01*
X125200000Y-71800000D02*
X123850000Y-70450000D01*
X132080000Y-63840000D02*
X132080000Y-69006701D01*
%TO.N,SDA*%
X127000000Y-68600000D02*
X128850000Y-70450000D01*
X127000000Y-63840000D02*
X127000000Y-68600000D01*
%TO.N,SCL*%
X124460000Y-68560000D02*
X126350000Y-70450000D01*
X124460000Y-63840000D02*
X124460000Y-68560000D01*
%TO.N,+3V3*%
X119380000Y-68180000D02*
X119380000Y-63840000D01*
X119400000Y-68200000D02*
X119380000Y-68180000D01*
X119400000Y-68500000D02*
X119400000Y-68200000D01*
X121350000Y-70450000D02*
X119400000Y-68500000D01*
%TO.N,GND*%
X121920000Y-68520000D02*
X123850000Y-70450000D01*
X121920000Y-63840000D02*
X121920000Y-68520000D01*
%TO.N,+5V*%
X123285000Y-36925000D02*
X119380000Y-33020000D01*
X134155000Y-37635000D02*
X133445000Y-36925000D01*
X134155000Y-70345000D02*
X134155000Y-37635000D01*
X133445000Y-36925000D02*
X123285000Y-36925000D01*
%TO.N,Net-(SW1-B)*%
X117600000Y-43763222D02*
X117600000Y-43800000D01*
X119795000Y-43800000D02*
X125380000Y-49385000D01*
X114806778Y-40970000D02*
X117600000Y-43763222D01*
X117600000Y-43800000D02*
X119795000Y-43800000D01*
%TO.N,+3V3*%
X88900000Y-71120000D02*
X106043604Y-71120000D01*
X106043604Y-71120000D02*
X109220000Y-67943604D01*
D24*
%TO.N,B+*%
X121100000Y-42000000D02*
X121100000Y-38600000D01*
X121100000Y-38600000D02*
X120600000Y-38100000D01*
X120600000Y-38100000D02*
X119380000Y-38100000D01*
X127360000Y-48260000D02*
X121100000Y-42000000D01*
X129540000Y-48260000D02*
X127360000Y-48260000D01*
D23*
%TO.N,Net-(SW1-B)*%
X130665000Y-48725991D02*
X130005991Y-49385000D01*
X132080000Y-40640000D02*
X130665000Y-42055000D01*
X130665000Y-42055000D02*
X130665000Y-48725991D01*
X130005991Y-49385000D02*
X125380000Y-49385000D01*
%TO.N,B-*%
X119380000Y-40463222D02*
X119380000Y-40640000D01*
%TO.N,Net-(U2-A0)*%
X90315000Y-54465000D02*
X88900000Y-55880000D01*
X119380000Y-50976778D02*
X115891778Y-54465000D01*
X119380000Y-48260000D02*
X119380000Y-50976778D01*
X115891778Y-54465000D02*
X90315000Y-54465000D01*
%TO.N,GND*%
X133705000Y-62215000D02*
X132080000Y-63840000D01*
X133705000Y-39725000D02*
X133705000Y-62215000D01*
X132080000Y-38100000D02*
X133705000Y-39725000D01*
%TO.N,Net-(D1-A)*%
X130965000Y-31595000D02*
X129540000Y-33020000D01*
X129135000Y-24995000D02*
X130965000Y-26825000D01*
X130965000Y-26825000D02*
X130965000Y-31595000D01*
%TO.N,+5V*%
X119380000Y-33020000D02*
X119380000Y-27940000D01*
%TO.N,+3V3*%
X117625000Y-62085000D02*
X119380000Y-63840000D01*
X111094010Y-62085000D02*
X117625000Y-62085000D01*
X109220000Y-63959010D02*
X111094010Y-62085000D01*
X109220000Y-67943604D02*
X109220000Y-63959010D01*
%TO.N,SDA*%
X111094010Y-57295000D02*
X120455000Y-57295000D01*
X110435000Y-59635000D02*
X110435000Y-57954010D01*
X120455000Y-57295000D02*
X127000000Y-63840000D01*
X111760000Y-60960000D02*
X110435000Y-59635000D01*
X110435000Y-57954010D02*
X111094010Y-57295000D01*
%TO.N,SCL*%
X119040000Y-58420000D02*
X124460000Y-63840000D01*
X111760000Y-58420000D02*
X119040000Y-58420000D01*
%TO.N,Net-(D2-A)*%
X128115000Y-26515000D02*
X129540000Y-27940000D01*
X112300000Y-26570000D02*
X112355000Y-26515000D01*
%TD*%
M02*
