%TF.GenerationSoftware,KiCad,Pcbnew,7.0.9*%
%TF.CreationDate,2024-01-03T14:20:43+09:00*%
%TF.ProjectId,SlimeVR_Tracker,536c696d-6556-4525-9f54-7261636b6572,rev?*%
%TF.SameCoordinates,Original*%
%TF.FileFunction,Legend,Top*%
%TF.FilePolarity,Positive*%
%FSLAX46Y46*%
G04 Gerber Fmt 4.6, Leading zero omitted, Abs format (unit mm)*
G04 Created by KiCad (PCBNEW 7.0.9) date 2024-01-03 14:20:43*
%MOMM*%
%LPD*%
G01*
G04 APERTURE LIST*
%ADD10C,0.100000*%
%ADD11C,0.150000*%
%ADD12C,0.120000*%
G04 APERTURE END LIST*
D10*
X94290238Y-34947419D02*
X94861666Y-34947419D01*
X94575952Y-35947419D02*
X94575952Y-34947419D01*
X95195000Y-35947419D02*
X95195000Y-34947419D01*
X95195000Y-34947419D02*
X95575952Y-34947419D01*
X95575952Y-34947419D02*
X95671190Y-34995038D01*
X95671190Y-34995038D02*
X95718809Y-35042657D01*
X95718809Y-35042657D02*
X95766428Y-35137895D01*
X95766428Y-35137895D02*
X95766428Y-35280752D01*
X95766428Y-35280752D02*
X95718809Y-35375990D01*
X95718809Y-35375990D02*
X95671190Y-35423609D01*
X95671190Y-35423609D02*
X95575952Y-35471228D01*
X95575952Y-35471228D02*
X95195000Y-35471228D01*
X96623571Y-35280752D02*
X96623571Y-35947419D01*
X96385476Y-34899800D02*
X96147381Y-35614085D01*
X96147381Y-35614085D02*
X96766428Y-35614085D01*
X97337857Y-34947419D02*
X97433095Y-34947419D01*
X97433095Y-34947419D02*
X97528333Y-34995038D01*
X97528333Y-34995038D02*
X97575952Y-35042657D01*
X97575952Y-35042657D02*
X97623571Y-35137895D01*
X97623571Y-35137895D02*
X97671190Y-35328371D01*
X97671190Y-35328371D02*
X97671190Y-35566466D01*
X97671190Y-35566466D02*
X97623571Y-35756942D01*
X97623571Y-35756942D02*
X97575952Y-35852180D01*
X97575952Y-35852180D02*
X97528333Y-35899800D01*
X97528333Y-35899800D02*
X97433095Y-35947419D01*
X97433095Y-35947419D02*
X97337857Y-35947419D01*
X97337857Y-35947419D02*
X97242619Y-35899800D01*
X97242619Y-35899800D02*
X97195000Y-35852180D01*
X97195000Y-35852180D02*
X97147381Y-35756942D01*
X97147381Y-35756942D02*
X97099762Y-35566466D01*
X97099762Y-35566466D02*
X97099762Y-35328371D01*
X97099762Y-35328371D02*
X97147381Y-35137895D01*
X97147381Y-35137895D02*
X97195000Y-35042657D01*
X97195000Y-35042657D02*
X97242619Y-34995038D01*
X97242619Y-34995038D02*
X97337857Y-34947419D01*
X98575952Y-34947419D02*
X98099762Y-34947419D01*
X98099762Y-34947419D02*
X98052143Y-35423609D01*
X98052143Y-35423609D02*
X98099762Y-35375990D01*
X98099762Y-35375990D02*
X98195000Y-35328371D01*
X98195000Y-35328371D02*
X98433095Y-35328371D01*
X98433095Y-35328371D02*
X98528333Y-35375990D01*
X98528333Y-35375990D02*
X98575952Y-35423609D01*
X98575952Y-35423609D02*
X98623571Y-35518847D01*
X98623571Y-35518847D02*
X98623571Y-35756942D01*
X98623571Y-35756942D02*
X98575952Y-35852180D01*
X98575952Y-35852180D02*
X98528333Y-35899800D01*
X98528333Y-35899800D02*
X98433095Y-35947419D01*
X98433095Y-35947419D02*
X98195000Y-35947419D01*
X98195000Y-35947419D02*
X98099762Y-35899800D01*
X98099762Y-35899800D02*
X98052143Y-35852180D01*
X99480714Y-34947419D02*
X99290238Y-34947419D01*
X99290238Y-34947419D02*
X99195000Y-34995038D01*
X99195000Y-34995038D02*
X99147381Y-35042657D01*
X99147381Y-35042657D02*
X99052143Y-35185514D01*
X99052143Y-35185514D02*
X99004524Y-35375990D01*
X99004524Y-35375990D02*
X99004524Y-35756942D01*
X99004524Y-35756942D02*
X99052143Y-35852180D01*
X99052143Y-35852180D02*
X99099762Y-35899800D01*
X99099762Y-35899800D02*
X99195000Y-35947419D01*
X99195000Y-35947419D02*
X99385476Y-35947419D01*
X99385476Y-35947419D02*
X99480714Y-35899800D01*
X99480714Y-35899800D02*
X99528333Y-35852180D01*
X99528333Y-35852180D02*
X99575952Y-35756942D01*
X99575952Y-35756942D02*
X99575952Y-35518847D01*
X99575952Y-35518847D02*
X99528333Y-35423609D01*
X99528333Y-35423609D02*
X99480714Y-35375990D01*
X99480714Y-35375990D02*
X99385476Y-35328371D01*
X99385476Y-35328371D02*
X99195000Y-35328371D01*
X99195000Y-35328371D02*
X99099762Y-35375990D01*
X99099762Y-35375990D02*
X99052143Y-35423609D01*
X99052143Y-35423609D02*
X99004524Y-35518847D01*
X100004524Y-35566466D02*
X100766429Y-35566466D01*
X101242619Y-35947419D02*
X101242619Y-34947419D01*
X101242619Y-34947419D02*
X101575952Y-35661704D01*
X101575952Y-35661704D02*
X101909285Y-34947419D01*
X101909285Y-34947419D02*
X101909285Y-35947419D01*
X102528333Y-35947419D02*
X102433095Y-35899800D01*
X102433095Y-35899800D02*
X102385476Y-35852180D01*
X102385476Y-35852180D02*
X102337857Y-35756942D01*
X102337857Y-35756942D02*
X102337857Y-35471228D01*
X102337857Y-35471228D02*
X102385476Y-35375990D01*
X102385476Y-35375990D02*
X102433095Y-35328371D01*
X102433095Y-35328371D02*
X102528333Y-35280752D01*
X102528333Y-35280752D02*
X102671190Y-35280752D01*
X102671190Y-35280752D02*
X102766428Y-35328371D01*
X102766428Y-35328371D02*
X102814047Y-35375990D01*
X102814047Y-35375990D02*
X102861666Y-35471228D01*
X102861666Y-35471228D02*
X102861666Y-35756942D01*
X102861666Y-35756942D02*
X102814047Y-35852180D01*
X102814047Y-35852180D02*
X102766428Y-35899800D01*
X102766428Y-35899800D02*
X102671190Y-35947419D01*
X102671190Y-35947419D02*
X102528333Y-35947419D01*
X103718809Y-35947419D02*
X103718809Y-34947419D01*
X103718809Y-35899800D02*
X103623571Y-35947419D01*
X103623571Y-35947419D02*
X103433095Y-35947419D01*
X103433095Y-35947419D02*
X103337857Y-35899800D01*
X103337857Y-35899800D02*
X103290238Y-35852180D01*
X103290238Y-35852180D02*
X103242619Y-35756942D01*
X103242619Y-35756942D02*
X103242619Y-35471228D01*
X103242619Y-35471228D02*
X103290238Y-35375990D01*
X103290238Y-35375990D02*
X103337857Y-35328371D01*
X103337857Y-35328371D02*
X103433095Y-35280752D01*
X103433095Y-35280752D02*
X103623571Y-35280752D01*
X103623571Y-35280752D02*
X103718809Y-35328371D01*
X104623571Y-35280752D02*
X104623571Y-35947419D01*
X104195000Y-35280752D02*
X104195000Y-35804561D01*
X104195000Y-35804561D02*
X104242619Y-35899800D01*
X104242619Y-35899800D02*
X104337857Y-35947419D01*
X104337857Y-35947419D02*
X104480714Y-35947419D01*
X104480714Y-35947419D02*
X104575952Y-35899800D01*
X104575952Y-35899800D02*
X104623571Y-35852180D01*
X105242619Y-35947419D02*
X105147381Y-35899800D01*
X105147381Y-35899800D02*
X105099762Y-35804561D01*
X105099762Y-35804561D02*
X105099762Y-34947419D01*
X106004524Y-35899800D02*
X105909286Y-35947419D01*
X105909286Y-35947419D02*
X105718810Y-35947419D01*
X105718810Y-35947419D02*
X105623572Y-35899800D01*
X105623572Y-35899800D02*
X105575953Y-35804561D01*
X105575953Y-35804561D02*
X105575953Y-35423609D01*
X105575953Y-35423609D02*
X105623572Y-35328371D01*
X105623572Y-35328371D02*
X105718810Y-35280752D01*
X105718810Y-35280752D02*
X105909286Y-35280752D01*
X105909286Y-35280752D02*
X106004524Y-35328371D01*
X106004524Y-35328371D02*
X106052143Y-35423609D01*
X106052143Y-35423609D02*
X106052143Y-35518847D01*
X106052143Y-35518847D02*
X105575953Y-35614085D01*
X107004524Y-35947419D02*
X106433096Y-35947419D01*
X106718810Y-35947419D02*
X106718810Y-34947419D01*
X106718810Y-34947419D02*
X106623572Y-35090276D01*
X106623572Y-35090276D02*
X106528334Y-35185514D01*
X106528334Y-35185514D02*
X106433096Y-35233133D01*
D11*
X113538095Y-78194819D02*
X113538095Y-79004342D01*
X113538095Y-79004342D02*
X113585714Y-79099580D01*
X113585714Y-79099580D02*
X113633333Y-79147200D01*
X113633333Y-79147200D02*
X113728571Y-79194819D01*
X113728571Y-79194819D02*
X113919047Y-79194819D01*
X113919047Y-79194819D02*
X114014285Y-79147200D01*
X114014285Y-79147200D02*
X114061904Y-79099580D01*
X114061904Y-79099580D02*
X114109523Y-79004342D01*
X114109523Y-79004342D02*
X114109523Y-78194819D01*
X114538095Y-78290057D02*
X114585714Y-78242438D01*
X114585714Y-78242438D02*
X114680952Y-78194819D01*
X114680952Y-78194819D02*
X114919047Y-78194819D01*
X114919047Y-78194819D02*
X115014285Y-78242438D01*
X115014285Y-78242438D02*
X115061904Y-78290057D01*
X115061904Y-78290057D02*
X115109523Y-78385295D01*
X115109523Y-78385295D02*
X115109523Y-78480533D01*
X115109523Y-78480533D02*
X115061904Y-78623390D01*
X115061904Y-78623390D02*
X114490476Y-79194819D01*
X114490476Y-79194819D02*
X115109523Y-79194819D01*
X130746667Y-36177200D02*
X130889524Y-36224819D01*
X130889524Y-36224819D02*
X131127619Y-36224819D01*
X131127619Y-36224819D02*
X131222857Y-36177200D01*
X131222857Y-36177200D02*
X131270476Y-36129580D01*
X131270476Y-36129580D02*
X131318095Y-36034342D01*
X131318095Y-36034342D02*
X131318095Y-35939104D01*
X131318095Y-35939104D02*
X131270476Y-35843866D01*
X131270476Y-35843866D02*
X131222857Y-35796247D01*
X131222857Y-35796247D02*
X131127619Y-35748628D01*
X131127619Y-35748628D02*
X130937143Y-35701009D01*
X130937143Y-35701009D02*
X130841905Y-35653390D01*
X130841905Y-35653390D02*
X130794286Y-35605771D01*
X130794286Y-35605771D02*
X130746667Y-35510533D01*
X130746667Y-35510533D02*
X130746667Y-35415295D01*
X130746667Y-35415295D02*
X130794286Y-35320057D01*
X130794286Y-35320057D02*
X130841905Y-35272438D01*
X130841905Y-35272438D02*
X130937143Y-35224819D01*
X130937143Y-35224819D02*
X131175238Y-35224819D01*
X131175238Y-35224819D02*
X131318095Y-35272438D01*
X131651429Y-35224819D02*
X131889524Y-36224819D01*
X131889524Y-36224819D02*
X132080000Y-35510533D01*
X132080000Y-35510533D02*
X132270476Y-36224819D01*
X132270476Y-36224819D02*
X132508572Y-35224819D01*
X133413333Y-36224819D02*
X132841905Y-36224819D01*
X133127619Y-36224819D02*
X133127619Y-35224819D01*
X133127619Y-35224819D02*
X133032381Y-35367676D01*
X133032381Y-35367676D02*
X132937143Y-35462914D01*
X132937143Y-35462914D02*
X132841905Y-35510533D01*
X118594285Y-35701009D02*
X118737142Y-35748628D01*
X118737142Y-35748628D02*
X118784761Y-35796247D01*
X118784761Y-35796247D02*
X118832380Y-35891485D01*
X118832380Y-35891485D02*
X118832380Y-36034342D01*
X118832380Y-36034342D02*
X118784761Y-36129580D01*
X118784761Y-36129580D02*
X118737142Y-36177200D01*
X118737142Y-36177200D02*
X118641904Y-36224819D01*
X118641904Y-36224819D02*
X118260952Y-36224819D01*
X118260952Y-36224819D02*
X118260952Y-35224819D01*
X118260952Y-35224819D02*
X118594285Y-35224819D01*
X118594285Y-35224819D02*
X118689523Y-35272438D01*
X118689523Y-35272438D02*
X118737142Y-35320057D01*
X118737142Y-35320057D02*
X118784761Y-35415295D01*
X118784761Y-35415295D02*
X118784761Y-35510533D01*
X118784761Y-35510533D02*
X118737142Y-35605771D01*
X118737142Y-35605771D02*
X118689523Y-35653390D01*
X118689523Y-35653390D02*
X118594285Y-35701009D01*
X118594285Y-35701009D02*
X118260952Y-35701009D01*
X119118095Y-35224819D02*
X119689523Y-35224819D01*
X119403809Y-36224819D02*
X119403809Y-35224819D01*
X120546666Y-36224819D02*
X119975238Y-36224819D01*
X120260952Y-36224819D02*
X120260952Y-35224819D01*
X120260952Y-35224819D02*
X120165714Y-35367676D01*
X120165714Y-35367676D02*
X120070476Y-35462914D01*
X120070476Y-35462914D02*
X119975238Y-35510533D01*
X124293333Y-46344819D02*
X123960000Y-45868628D01*
X123721905Y-46344819D02*
X123721905Y-45344819D01*
X123721905Y-45344819D02*
X124102857Y-45344819D01*
X124102857Y-45344819D02*
X124198095Y-45392438D01*
X124198095Y-45392438D02*
X124245714Y-45440057D01*
X124245714Y-45440057D02*
X124293333Y-45535295D01*
X124293333Y-45535295D02*
X124293333Y-45678152D01*
X124293333Y-45678152D02*
X124245714Y-45773390D01*
X124245714Y-45773390D02*
X124198095Y-45821009D01*
X124198095Y-45821009D02*
X124102857Y-45868628D01*
X124102857Y-45868628D02*
X123721905Y-45868628D01*
X125245714Y-46344819D02*
X124674286Y-46344819D01*
X124960000Y-46344819D02*
X124960000Y-45344819D01*
X124960000Y-45344819D02*
X124864762Y-45487676D01*
X124864762Y-45487676D02*
X124769524Y-45582914D01*
X124769524Y-45582914D02*
X124674286Y-45630533D01*
X119118095Y-26294819D02*
X119118095Y-25294819D01*
X119689523Y-26294819D02*
X119260952Y-25723390D01*
X119689523Y-25294819D02*
X119118095Y-25866247D01*
X119118095Y-31374819D02*
X119118095Y-30374819D01*
X119689523Y-31374819D02*
X119260952Y-30803390D01*
X119689523Y-30374819D02*
X119118095Y-30946247D01*
D10*
X118589047Y-56678609D02*
X118731904Y-56726228D01*
X118731904Y-56726228D02*
X118779523Y-56773847D01*
X118779523Y-56773847D02*
X118827142Y-56869085D01*
X118827142Y-56869085D02*
X118827142Y-57011942D01*
X118827142Y-57011942D02*
X118779523Y-57107180D01*
X118779523Y-57107180D02*
X118731904Y-57154800D01*
X118731904Y-57154800D02*
X118636666Y-57202419D01*
X118636666Y-57202419D02*
X118255714Y-57202419D01*
X118255714Y-57202419D02*
X118255714Y-56202419D01*
X118255714Y-56202419D02*
X118589047Y-56202419D01*
X118589047Y-56202419D02*
X118684285Y-56250038D01*
X118684285Y-56250038D02*
X118731904Y-56297657D01*
X118731904Y-56297657D02*
X118779523Y-56392895D01*
X118779523Y-56392895D02*
X118779523Y-56488133D01*
X118779523Y-56488133D02*
X118731904Y-56583371D01*
X118731904Y-56583371D02*
X118684285Y-56630990D01*
X118684285Y-56630990D02*
X118589047Y-56678609D01*
X118589047Y-56678609D02*
X118255714Y-56678609D01*
X119255714Y-57202419D02*
X119255714Y-56202419D01*
X119255714Y-56202419D02*
X119589047Y-56916704D01*
X119589047Y-56916704D02*
X119922380Y-56202419D01*
X119922380Y-56202419D02*
X119922380Y-57202419D01*
X120398571Y-57202419D02*
X120398571Y-56202419D01*
X121398570Y-57202419D02*
X120827142Y-57202419D01*
X121112856Y-57202419D02*
X121112856Y-56202419D01*
X121112856Y-56202419D02*
X121017618Y-56345276D01*
X121017618Y-56345276D02*
X120922380Y-56440514D01*
X120922380Y-56440514D02*
X120827142Y-56488133D01*
X122255713Y-56202419D02*
X122065237Y-56202419D01*
X122065237Y-56202419D02*
X121969999Y-56250038D01*
X121969999Y-56250038D02*
X121922380Y-56297657D01*
X121922380Y-56297657D02*
X121827142Y-56440514D01*
X121827142Y-56440514D02*
X121779523Y-56630990D01*
X121779523Y-56630990D02*
X121779523Y-57011942D01*
X121779523Y-57011942D02*
X121827142Y-57107180D01*
X121827142Y-57107180D02*
X121874761Y-57154800D01*
X121874761Y-57154800D02*
X121969999Y-57202419D01*
X121969999Y-57202419D02*
X122160475Y-57202419D01*
X122160475Y-57202419D02*
X122255713Y-57154800D01*
X122255713Y-57154800D02*
X122303332Y-57107180D01*
X122303332Y-57107180D02*
X122350951Y-57011942D01*
X122350951Y-57011942D02*
X122350951Y-56773847D01*
X122350951Y-56773847D02*
X122303332Y-56678609D01*
X122303332Y-56678609D02*
X122255713Y-56630990D01*
X122255713Y-56630990D02*
X122160475Y-56583371D01*
X122160475Y-56583371D02*
X121969999Y-56583371D01*
X121969999Y-56583371D02*
X121874761Y-56630990D01*
X121874761Y-56630990D02*
X121827142Y-56678609D01*
X121827142Y-56678609D02*
X121779523Y-56773847D01*
X122969999Y-56202419D02*
X123065237Y-56202419D01*
X123065237Y-56202419D02*
X123160475Y-56250038D01*
X123160475Y-56250038D02*
X123208094Y-56297657D01*
X123208094Y-56297657D02*
X123255713Y-56392895D01*
X123255713Y-56392895D02*
X123303332Y-56583371D01*
X123303332Y-56583371D02*
X123303332Y-56821466D01*
X123303332Y-56821466D02*
X123255713Y-57011942D01*
X123255713Y-57011942D02*
X123208094Y-57107180D01*
X123208094Y-57107180D02*
X123160475Y-57154800D01*
X123160475Y-57154800D02*
X123065237Y-57202419D01*
X123065237Y-57202419D02*
X122969999Y-57202419D01*
X122969999Y-57202419D02*
X122874761Y-57154800D01*
X122874761Y-57154800D02*
X122827142Y-57107180D01*
X122827142Y-57107180D02*
X122779523Y-57011942D01*
X122779523Y-57011942D02*
X122731904Y-56821466D01*
X122731904Y-56821466D02*
X122731904Y-56583371D01*
X122731904Y-56583371D02*
X122779523Y-56392895D01*
X122779523Y-56392895D02*
X122827142Y-56297657D01*
X122827142Y-56297657D02*
X122874761Y-56250038D01*
X122874761Y-56250038D02*
X122969999Y-56202419D01*
X123731904Y-56821466D02*
X124493809Y-56821466D01*
X124969999Y-57202419D02*
X124969999Y-56202419D01*
X124969999Y-56202419D02*
X125303332Y-56916704D01*
X125303332Y-56916704D02*
X125636665Y-56202419D01*
X125636665Y-56202419D02*
X125636665Y-57202419D01*
X126255713Y-57202419D02*
X126160475Y-57154800D01*
X126160475Y-57154800D02*
X126112856Y-57107180D01*
X126112856Y-57107180D02*
X126065237Y-57011942D01*
X126065237Y-57011942D02*
X126065237Y-56726228D01*
X126065237Y-56726228D02*
X126112856Y-56630990D01*
X126112856Y-56630990D02*
X126160475Y-56583371D01*
X126160475Y-56583371D02*
X126255713Y-56535752D01*
X126255713Y-56535752D02*
X126398570Y-56535752D01*
X126398570Y-56535752D02*
X126493808Y-56583371D01*
X126493808Y-56583371D02*
X126541427Y-56630990D01*
X126541427Y-56630990D02*
X126589046Y-56726228D01*
X126589046Y-56726228D02*
X126589046Y-57011942D01*
X126589046Y-57011942D02*
X126541427Y-57107180D01*
X126541427Y-57107180D02*
X126493808Y-57154800D01*
X126493808Y-57154800D02*
X126398570Y-57202419D01*
X126398570Y-57202419D02*
X126255713Y-57202419D01*
X127446189Y-57202419D02*
X127446189Y-56202419D01*
X127446189Y-57154800D02*
X127350951Y-57202419D01*
X127350951Y-57202419D02*
X127160475Y-57202419D01*
X127160475Y-57202419D02*
X127065237Y-57154800D01*
X127065237Y-57154800D02*
X127017618Y-57107180D01*
X127017618Y-57107180D02*
X126969999Y-57011942D01*
X126969999Y-57011942D02*
X126969999Y-56726228D01*
X126969999Y-56726228D02*
X127017618Y-56630990D01*
X127017618Y-56630990D02*
X127065237Y-56583371D01*
X127065237Y-56583371D02*
X127160475Y-56535752D01*
X127160475Y-56535752D02*
X127350951Y-56535752D01*
X127350951Y-56535752D02*
X127446189Y-56583371D01*
X128350951Y-56535752D02*
X128350951Y-57202419D01*
X127922380Y-56535752D02*
X127922380Y-57059561D01*
X127922380Y-57059561D02*
X127969999Y-57154800D01*
X127969999Y-57154800D02*
X128065237Y-57202419D01*
X128065237Y-57202419D02*
X128208094Y-57202419D01*
X128208094Y-57202419D02*
X128303332Y-57154800D01*
X128303332Y-57154800D02*
X128350951Y-57107180D01*
X128969999Y-57202419D02*
X128874761Y-57154800D01*
X128874761Y-57154800D02*
X128827142Y-57059561D01*
X128827142Y-57059561D02*
X128827142Y-56202419D01*
X129731904Y-57154800D02*
X129636666Y-57202419D01*
X129636666Y-57202419D02*
X129446190Y-57202419D01*
X129446190Y-57202419D02*
X129350952Y-57154800D01*
X129350952Y-57154800D02*
X129303333Y-57059561D01*
X129303333Y-57059561D02*
X129303333Y-56678609D01*
X129303333Y-56678609D02*
X129350952Y-56583371D01*
X129350952Y-56583371D02*
X129446190Y-56535752D01*
X129446190Y-56535752D02*
X129636666Y-56535752D01*
X129636666Y-56535752D02*
X129731904Y-56583371D01*
X129731904Y-56583371D02*
X129779523Y-56678609D01*
X129779523Y-56678609D02*
X129779523Y-56773847D01*
X129779523Y-56773847D02*
X129303333Y-56869085D01*
X130731904Y-57202419D02*
X130160476Y-57202419D01*
X130446190Y-57202419D02*
X130446190Y-56202419D01*
X130446190Y-56202419D02*
X130350952Y-56345276D01*
X130350952Y-56345276D02*
X130255714Y-56440514D01*
X130255714Y-56440514D02*
X130160476Y-56488133D01*
%TO.C,TP4056-Module1*%
X86600000Y-25070000D02*
X114900000Y-25070000D01*
X114900000Y-25070000D02*
X114900000Y-42470000D01*
X114900000Y-42470000D02*
X86600000Y-42470000D01*
X86600000Y-42470000D02*
X86600000Y-25070000D01*
D12*
%TO.C,J2*%
X126600000Y-73650000D02*
X126100000Y-73650000D01*
X121600000Y-73650000D02*
X121100000Y-73650000D01*
X126100000Y-73650000D02*
X126100000Y-79150000D01*
X121050000Y-68350000D02*
X121650000Y-68350000D01*
X125100000Y-79760000D02*
X118790000Y-79760000D01*
X129100000Y-73650000D02*
X128600000Y-73650000D01*
X121650000Y-68350000D02*
X121350000Y-68950000D01*
X120210000Y-68040000D02*
X120210000Y-72540000D01*
X124100000Y-73650000D02*
X123600000Y-73650000D01*
X129990000Y-72540000D02*
X125100000Y-72540000D01*
X131410000Y-68040000D02*
X129990000Y-68040000D01*
X121100000Y-79150000D02*
X121600000Y-79150000D01*
X129990000Y-68040000D02*
X129990000Y-72540000D01*
X124100000Y-79150000D02*
X124100000Y-73650000D01*
X121350000Y-68950000D02*
X121050000Y-68350000D01*
X128600000Y-79150000D02*
X129100000Y-79150000D01*
X123600000Y-79150000D02*
X124100000Y-79150000D01*
X125100000Y-79760000D02*
X131410000Y-79760000D01*
X121100000Y-73650000D02*
X121100000Y-79150000D01*
X121600000Y-79150000D02*
X121600000Y-73650000D01*
X118790000Y-68040000D02*
X120210000Y-68040000D01*
X131410000Y-79760000D02*
X131410000Y-68040000D01*
X123600000Y-73650000D02*
X123600000Y-79150000D01*
X129100000Y-79150000D02*
X129100000Y-73650000D01*
X118790000Y-79760000D02*
X118790000Y-68040000D01*
X120210000Y-72540000D02*
X125100000Y-72540000D01*
X128600000Y-73650000D02*
X128600000Y-79150000D01*
X126100000Y-79150000D02*
X126600000Y-79150000D01*
X126600000Y-79150000D02*
X126600000Y-73650000D01*
%TO.C,U2*%
X87400000Y-72560000D02*
X89940000Y-72560000D01*
X89940000Y-72560000D02*
X89940000Y-79460000D01*
X89940000Y-79460000D02*
X113260000Y-79460000D01*
X87400000Y-72560000D02*
X87400000Y-47130000D01*
X111140000Y-45000000D02*
X89530000Y-45000000D01*
X113260000Y-79460000D02*
X113260000Y-47130000D01*
X113260000Y-47130000D02*
G75*
G03*
X111130000Y-45000000I-2130000J0D01*
G01*
X89530000Y-45000000D02*
G75*
G03*
X87400000Y-47130000I2J-2130002D01*
G01*
D11*
X86995000Y-53340000D02*
X86360000Y-53975000D01*
X86360000Y-52705000D01*
X86995000Y-53340000D01*
G36*
X86995000Y-53340000D02*
G01*
X86360000Y-53975000D01*
X86360000Y-52705000D01*
X86995000Y-53340000D01*
G37*
D12*
%TO.C,SW1*%
X130750000Y-44510000D02*
X133410000Y-44510000D01*
X130750000Y-39370000D02*
X130750000Y-44510000D01*
X130750000Y-38100000D02*
X130750000Y-36770000D01*
X133410000Y-39370000D02*
X133410000Y-44510000D01*
X130750000Y-36770000D02*
X132080000Y-36770000D01*
X130750000Y-39370000D02*
X133410000Y-39370000D01*
%TO.C,BT1*%
X118050000Y-38100000D02*
X118050000Y-36770000D01*
X118050000Y-41970000D02*
X120710000Y-41970000D01*
X118050000Y-39370000D02*
X118050000Y-41970000D01*
X118050000Y-39370000D02*
X120710000Y-39370000D01*
X118050000Y-36770000D02*
X119380000Y-36770000D01*
X120710000Y-39370000D02*
X120710000Y-41970000D01*
%TO.C,R1*%
X128500000Y-48260000D02*
X127730000Y-48260000D01*
X120420000Y-48260000D02*
X121190000Y-48260000D01*
X121190000Y-46890000D02*
X121190000Y-49630000D01*
X127730000Y-49630000D02*
X127730000Y-46890000D01*
X121190000Y-49630000D02*
X127730000Y-49630000D01*
X127730000Y-46890000D02*
X121190000Y-46890000D01*
%TO.C,D2*%
X122640000Y-26470000D02*
X122640000Y-29410000D01*
X122760000Y-26470000D02*
X122760000Y-29410000D01*
X121740000Y-29410000D02*
X127180000Y-29410000D01*
X128200000Y-27940000D02*
X127180000Y-27940000D01*
X121740000Y-26470000D02*
X121740000Y-29410000D01*
X122520000Y-26470000D02*
X122520000Y-29410000D01*
X127180000Y-29410000D02*
X127180000Y-26470000D01*
X120720000Y-27940000D02*
X121740000Y-27940000D01*
X127180000Y-26470000D02*
X121740000Y-26470000D01*
%TO.C,D1*%
X122640000Y-31550000D02*
X122640000Y-34490000D01*
X122760000Y-31550000D02*
X122760000Y-34490000D01*
X121740000Y-34490000D02*
X127180000Y-34490000D01*
X128200000Y-33020000D02*
X127180000Y-33020000D01*
X121740000Y-31550000D02*
X121740000Y-34490000D01*
X122520000Y-31550000D02*
X122520000Y-34490000D01*
X127180000Y-34490000D02*
X127180000Y-31550000D01*
X120720000Y-33020000D02*
X121740000Y-33020000D01*
X127180000Y-31550000D02*
X121740000Y-31550000D01*
D10*
%TO.C,BMI160-Module1*%
X115505000Y-51965000D02*
X133455000Y-51965000D01*
X133455000Y-51965000D02*
X133455000Y-65215000D01*
X133455000Y-65215000D02*
X115505000Y-65215000D01*
X115505000Y-65215000D02*
X115505000Y-51965000D01*
%TD*%
M02*
